<?xml version="1.0" encoding="utf-8"?>
<!-- Generator: Adobe Illustrator 16.0.0, SVG Export Plug-In . SVG Version: 6.00 Build 0)  -->
<!DOCTYPE svg PUBLIC "-//W3C//DTD SVG 1.1//EN" "http://www.w3.org/Graphics/SVG/1.1/DTD/svg11.dtd">
<svg version="1.1" id="Layer_1" xmlns="http://www.w3.org/2000/svg" xmlns:xlink="http://www.w3.org/1999/xlink" x="0px" y="0px"
	 width="841.89px" height="595.28px" viewBox="0 0 841.89 595.28" enable-background="new 0 0 841.89 595.28" xml:space="preserve">
<ellipse transform="matrix(0.8802 -0.4746 0.4746 0.8802 -168.9581 312.4972)" fill="#007CAB" cx="534.567" cy="490.949" rx="189.558" ry="96.205"/>
<path fill="#FFFFFF" stroke="#000000" stroke-miterlimit="10" d="M323,525"/>
<path fill="#36A9E1" stroke="#45C1F1" stroke-miterlimit="10" d="M0,252c0,0,109.423-19.635,151-82c8-12,113-30,86-87
	c0,0-38-56,99-46c0,0,99,9,115-37H0V252z"/>
<path fill="#2B4999" stroke="#B17F4A" stroke-miterlimit="10" d="M715.193,258c0,0-106,24-62,73c0,0-15,95,62,57s39,35,104,2
	s56-34,62-73s41-79,6-110s-108.352-30-114.676-9C772.518,198,664.193,210,715.193,258z"/>
<path fill="#FFFFFF" stroke="#000000" stroke-miterlimit="10" d="M493,414"/>
<path fill="#36A9E1" d="M493,595.28c0,0,67-83.28,193-96.28c0,0,97,8,112-32c0,0-44-70,5-91c0,0,37-47,26,28c0,0-7.221,34,12.89,17
	v174.28H493z"/>
<path fill="#3185C6" d="M-49.634,100.447c0,0-1.72-40.438,67.063-31.385c68.784,9.053,35.538-36.817,73.942-33.196
	c0,0,73.368-9.054,45.283,53.717c-28.087,62.77,40.123,29.14,28.659,69.795c-11.463,40.657-1.146,3.236-1.146,3.236
	s-13.756,73.634-80.82,48.889c-67.064-24.747-55.026,16.899-99.736-3.019c0,0-66.491-27.764-51.014-86.31
	C-67.402,122.175-61.097,113.123-49.634,100.447z"/>
</svg>
