<?xml version="1.0" encoding="utf-8"?>
<!-- Generator: Adobe Illustrator 16.0.0, SVG Export Plug-In . SVG Version: 6.00 Build 0)  -->
<!DOCTYPE svg PUBLIC "-//W3C//DTD SVG 1.1//EN" "http://www.w3.org/Graphics/SVG/1.1/DTD/svg11.dtd">
<svg version="1.1" id="Layer_1" xmlns="http://www.w3.org/2000/svg" xmlns:xlink="http://www.w3.org/1999/xlink" x="0px" y="0px"
	 width="841.89px" height="595.28px" viewBox="0 0 841.89 595.28" enable-background="new 0 0 841.89 595.28" xml:space="preserve">
<text transform="matrix(1.0348 0 0 1 141.792 353.9219)" fill="#387FC2" font-family="'Calibri'" font-size="221.25">Rib   t</text>
<g>
	<g>
		<path fill="#51ACE1" d="M626.311,410.492l-31.965-41.661c-0.001-0.001-0.002-0.001-0.002-0.002
			c-0.001-0.002-0.001-0.002-0.002-0.004l-11.427-14.892c-3.86-5.031-10.142-5.034-14.003,0l-1.4,1.824l-4.825-6.289
			c9.453-14.772,15.149-33.766,15.149-54.463c-0.001-46.956-29.312-85.158-65.339-85.158c-36.028,0-65.339,38.202-65.339,85.159
			c0,46.956,29.311,85.158,65.339,85.158c15.879,0,30.451-7.424,41.786-19.745l4.826,6.289l-1.401,1.826
			c-3.859,5.031-3.859,13.218,0.001,18.25l43.395,56.56c3.869,5.043,10.134,5.045,14.004,0l11.203-14.601
			C630.172,423.712,630.172,415.525,626.311,410.492z M512.497,364.678c-29.476,0-53.457-31.254-53.457-69.671
			c0-38.418,23.981-69.673,53.457-69.673s53.456,31.255,53.456,69.673C565.953,333.424,541.973,364.678,512.497,364.678z
			 M567.511,377.66l8.402-10.951l5.827,7.596l-8.402,10.95L567.511,377.66z M608.105,430.569l-26.365-34.364l8.402-10.951
			l26.365,34.364L608.105,430.569z"/>
	</g>
</g>
<g>
	<g>
		<path fill="#3259A5" d="M512.229,235.632c-3.281,0-5.941,3.467-5.941,7.743c0,4.277,2.66,7.744,5.941,7.744
			c16.372,0,29.692,17.359,29.692,38.697c0,4.276,2.66,7.743,5.941,7.743c3.28,0,5.94-3.467,5.94-7.743
			C553.804,259.939,535.153,235.632,512.229,235.632z"/>
	</g>
</g>
<path fill="#3B59A5" d="M503.332,305.271c2.536,8.221,13.139,8.523,15.522,0c2.807,2.778,11.11,3.338,14.2,5.234
	c0.976,0.599,1.862,1.362,2.568,2.397c1.076,1.564,1.736,3.61,1.916,6.21l0.644,5.824c-0.157,1.838-1.102,2.897-2.969,3.051h-48.247
	c-1.862-0.158-2.812-1.213-2.969-3.051l0.643-5.824c0.181-2.595,0.842-4.64,1.917-6.21c0.711-1.035,1.593-1.799,2.568-2.397
	C492.221,308.608,500.524,308.054,503.332,305.271L503.332,305.271L503.332,305.271z M525.26,314.041h1.624
	c0.306,0,0.553,0.272,0.553,0.609v2.669h2.425c0.301,0,0.553,0.272,0.553,0.609v1.788c0,0.332-0.247,0.609-0.553,0.609h-2.425v2.669
	c0,0.332-0.247,0.608-0.553,0.608h-1.624c-0.302,0-0.553-0.271-0.553-0.608v-2.669h-2.425c-0.302,0-0.554-0.273-0.554-0.609v-1.788
	c0-0.331,0.247-0.609,0.554-0.609h2.425v-2.669C524.707,314.313,524.954,314.041,525.26,314.041L525.26,314.041z M501.388,285.366
	c-0.531,0.024-0.936,0.143-1.21,0.347c-0.157,0.114-0.274,0.263-0.346,0.44c-0.081,0.198-0.122,0.436-0.113,0.708
	c0.023,0.802,0.405,1.857,1.144,3.065l0.009,0.02l0,0l2.401,4.205c0.962,1.685,1.97,3.403,3.226,4.666
	c1.205,1.213,2.667,2.035,4.602,2.04c2.096,0.005,3.626-0.847,4.871-2.13c1.296-1.332,2.312-3.159,3.32-4.987l2.703-4.903
	c0.503-1.268,0.688-2.115,0.571-2.61c-0.068-0.297-0.364-0.441-0.873-0.471c-0.107-0.005-0.216-0.005-0.328-0.005
	c-0.121,0.005-0.247,0.015-0.378,0.025c-0.071,0.004-0.145,0-0.207-0.015c-0.238,0.015-0.49-0.005-0.742-0.044l0.927-4.512
	c-6.873,1.193-12.01-4.427-19.274-1.124l0.526,5.323C501.919,285.421,501.645,285.411,501.388,285.366L501.388,285.366
	L501.388,285.366z M522.619,284.421c0.666,0.222,1.093,0.688,1.269,1.44c0.193,0.832-0.018,2.006-0.657,3.61l0,0
	c-0.013,0.03-0.026,0.059-0.04,0.084l-2.739,4.963c-1.053,1.912-2.123,3.828-3.554,5.3c-1.48,1.524-3.302,2.54-5.798,2.534
	c-2.33-0.004-4.08-0.984-5.519-2.431c-1.391-1.396-2.452-3.205-3.46-4.968l-2.402-4.205c-0.877-1.441-1.336-2.759-1.362-3.838
	c-0.014-0.51,0.066-0.971,0.233-1.376c0.18-0.427,0.455-0.783,0.823-1.055c0.176-0.129,0.369-0.238,0.58-0.328
	c-0.157-2.278-0.215-5.15-0.112-7.557c0.055-0.569,0.153-1.139,0.297-1.713c0.611-2.412,2.15-4.353,4.057-5.69
	c0.671-0.471,1.409-0.862,2.183-1.169c4.615-1.837,10.728-0.836,14.003,3.061c1.331,1.59,2.168,3.695,2.348,6.478L522.619,284.421
	L522.619,284.421L522.619,284.421z"/>
</svg>
